<?xml version="1.0" encoding="iso-8859-1"?>
<!-- Generator: Adobe Illustrator 19.0.0, SVG Export Plug-In . SVG Version: 6.00 Build 0)  -->
<svg version="1.1" id="Capa_1" xmlns="http://www.w3.org/2000/svg" xmlns:xlink="http://www.w3.org/1999/xlink" x="0px" y="0px"
	 viewBox="0 0 416.1 416.1" style="enable-background:new 0 0 416.1 416.1;" xml:space="preserve">
<path style="fill:#ED664C;" d="M408.3,125.15v226.9c0,11.5-9.3,20.9-20.9,20.9H28.6c-11.5,0-20.9-9.3-20.9-20.9v-226.9
	c0-11.5,9.3-20.9,20.9-20.9h111.6h135.6h111.6C399,104.25,408.3,113.55,408.3,125.15z M296.7,238.55c0-49-39.7-88.7-88.7-88.7
	s-88.7,39.7-88.7,88.7s39.7,88.7,88.7,88.7S296.7,287.55,296.7,238.55z"/>
<circle style="fill:#FDC75B;" cx="208" cy="238.55" r="88.7"/>
<path d="M387.4,96.05H284v-32c0-15.9-13.1-29-29.1-29H161c-15.9,0-29.1,13.1-29.1,29v32H28.6c-16,0-28.6,13.1-28.6,29.1v226.9
	c0,15.9,12.6,29,28.6,29h358.9c15.9,0,28.6-13.1,28.6-29v-226.9C416,109.15,403.4,96.05,387.4,96.05z M148,64.05c0-7.1,6-13,13.1-13
	H255c7.1,0,13.1,5.9,13.1,13v32H148V64.05z M401,352.15c0,7.1-5.8,12.9-12.9,12.9H28.9c-7.1,0-12.9-5.8-12.9-12.9v-227.2
	c0-7.1,5.8-12.9,12.9-12.9h359.3c7.1,0,12.9,5.8,12.9,12.9v227.2H401z"/>
<path d="M256.1,230.05H216v-39.9c0-4.4-3.6-8-8-8s-8,3.6-8,8v39.9h-40.1c-4.4,0-8,3.6-8,8s3.6,8,8,8H200v40.4c0,4.4,3.6,8,8,8
	s8-3.6,8-8v-40.4h40.1c4.4,0,8-3.6,8-8S260.6,230.05,256.1,230.05z"/>
<path d="M208,141.85c-53.3,0-96.7,43.4-96.7,96.7s43.4,96.7,96.7,96.7s96.7-43.4,96.7-96.7S261.3,141.85,208,141.85z M208,319.25
	c-44.5,0-80.7-36.2-80.7-80.7s36.2-80.7,80.7-80.7s80.7,36.2,80.7,80.7S252.5,319.25,208,319.25z"/>
<g>
</g>
<g>
</g>
<g>
</g>
<g>
</g>
<g>
</g>
<g>
</g>
<g>
</g>
<g>
</g>
<g>
</g>
<g>
</g>
<g>
</g>
<g>
</g>
<g>
</g>
<g>
</g>
<g>
</g>
</svg>
